<?xml version="1.0" encoding="UTF-8"?>
<svg viewBox="0 0 412.59 163.94" xmlns="http://www.w3.org/2000/svg">
 <defs>
  <linearGradient id="a" x1=".69068" x2=".7391" y1=".31979" y2="1.1413" gradientTransform="matrix(.50508 .18034 -.15752 .44116 151.04 -63.043)">
   <stop stop-color="#fff" offset="0"/>
   <stop stop-color="#c0c0c0" offset="1"/>
  </linearGradient>
 </defs>
 <path d="m254.34 122.13l-1.921 22.075-181.47-25.165s-0.9602 0.441-6.2413-0.442-41.287-7.505-45.608-9.713c-4.321-2.207-11.042-4.415-10.562-6.181 0.47984-1.766 2.8805-7.5055 19.684-5.2977 16.803 2.2077 160.35 12.804 160.35 12.804l65.772 11.92z" fill="#7f7f7f"/>
 <path d="m369.98 108.87c-27.262 0.147-54.376 2.979-81.543 4.631-9.911 0.9-19.347 3.877-29.215 4.988-6.168 0.104-9.402 3.304-8.581 8.529-0.44099 4.622-0.72499 9.254-1.19 13.874 5.607 4.686 14.21 2.926 21.055 5.079 9.746 2.618 14.903 12.83 25.744 13.113 6.658 0.459 13.302 1.038 19.907 1.793 15.329 0.56401 30.854 1.844 46.034-0.78499 11.279-0.64 21.717-4.759 32.107-8.264 12.082-5.347 20.326-18.279 15.769-29.95-2.467-7.52-11.24-11.463-19.593-12.272-6.783-0.892-13.663-0.571-20.494-0.736zm0.855 14.683c7.336 0.397 17.202-1.048 21.463 5.641 3.843 7.021-1.152 15.485-8.854 18.604-11.123 4.708-23.817 5.359-35.952 6.152-14.368 0.32799-29.691 1.471-42.983-4.285-6.118-2.846-11.945-9.167-9.695-15.461 5.066-3.717 12.349-5.254 18.79-6.764 9.026-1.308 18.233-1.246 27.282-2.285 10.004-0.209 19.966-1.118 29.949-1.602z" fill="#ff007f"/>
 <path d="m402.71 65.742c-1.787 0.7129-2.269 0.9946 0 0z" fill="#7f7f7f" stroke="#fff"/>
 <path d="m211 136.44s-99.813 13.986-172.3 25.226c-13.729 2.128-24.162 2.88-33.222 0.398-2.7728-0.759-12.452-4.968 7.2821-10.126 19.734-5.157 69.032-17.225 91.985-21.372 45.905-8.294 100.81-19.013 100.81-19.013l43.044-34.508 17.977 21.357c-0.40002-3.7256-19.073 6.7229-36.49 20.099-12.756 9.798-19.08 17.939-19.08 17.939z" fill="url(#a)"/>
 <path d="m324.94 0.3809c-9.932 1.3088-19.272 5.0132-27.945 9.196-11.373 7.0432-14.283 19.316-19.512 29.72-4.883 10.065-11.631 19.659-21.303 26.901-5.429 4.9059-11.518 9.3781-15.831 15.096-0.548 5.835 6.671 8.8663 9.569 13.487 2.466 4.3394 8.749 7.8259 13.693 3.8824 7.576-4.4444 14.342-9.8247 21.751-14.448 6.45-5.1986 14.328-8.882 21.689-13.007 5.785-1.8271 11.765-5.8593 18.134-4.3979 7.158 1.6027 15.213 5.5456 22.361 1.7135 7.33-3.7627 9.435-11.367 10.776-18.041 3.326-10.751 6.795-22.942-0.014008-33.264-6.193-10.548-19.508-17.387-33.368-16.838zm-3.636 10.743c13.913-0.5351 28.65 9.0841 27.942 21.637 0.032013 8.3506-5.908 15.934-14.012 20.308-6.434 4.0001-15.975 5.1102-22.379 0.4707-10.357-6.126-13.337-17.953-11.676-28.067 1.448-7.7157 9.215-14.757 18.824-14.309l1.301-0.0398z" fill="#ff007f"/>
 <path d="m195.76 133.83c-5.343-2.021-7.978-6.95-6.143-11.492 1.04-2.574 2.052-3.521 5.304-4.961 4.557-2.019 9.906-0.751 12.675 3.003 1.527 2.071 1.641 2.502 1.423 5.376-0.31601 4.156-1.522 5.907-5.185 7.533-3.257 1.445-5.319 1.583-8.074 0.541z" fill="#3f3f3f"/>
</svg>
